<?xml version="1.0" standalone="no"?>
<!DOCTYPE svg PUBLIC "-//W3C//DTD SVG 20010904//EN"
 "http://www.w3.org/TR/2001/REC-SVG-20010904/DTD/svg10.dtd">
<svg version="1.0" xmlns="http://www.w3.org/2000/svg"
 width="800.000000pt" height="800.000000pt" viewBox="0 0 800.000000 800.000000"
 preserveAspectRatio="xMidYMid meet">
<metadata>
Created by potrace 1.11, written by Peter Selinger 2001-2013
</metadata>
<g transform="translate(0.000000,800.000000) scale(0.100000,-0.100000)"
fill="#000000" stroke="none">
<path d="M1730 4500 l0 -750 -375 0 -375 0 0 125 0 125 -250 0 -250 0 0 -125
0 -125 125 0 125 0 0 -125 0 -125 625 0 625 0 0 125 0 125 125 0 125 0 0 750
0 750 -250 0 -250 0 0 -750z"/>
<path d="M3400 5125 l0 -125 -125 0 -125 0 0 -125 0 -125 250 0 250 0 0 125 0
125 375 0 375 0 0 -125 0 -125 -125 0 -125 0 0 -125 0 -125 -250 0 -250 0 0
-125 0 -125 -125 0 -125 0 0 -125 0 -125 -125 0 -125 0 0 -250 0 -250 875 0
875 0 0 125 0 125 -500 0 -500 0 0 125 0 125 250 0 250 0 0 125 0 125 125 0
125 0 0 125 0 125 125 0 125 0 0 250 0 250 -125 0 -125 0 0 125 0 125 -625 0
-625 0 0 -125z"/>
<path d="M6060 4625 l0 -125 500 0 500 0 0 -125 0 -125 -500 0 -500 0 0 -125
0 -125 -125 0 -125 0 0 -125 0 -125 125 0 125 0 0 -125 0 -125 750 0 750 0 0
500 0 500 -125 0 -125 0 0 125 0 125 -625 0 -625 0 0 -125z m1000 -750 l0
-125 -375 0 -375 0 0 125 0 125 375 0 375 0 0 -125z"/>
</g>
</svg>
