<?xml version="1.0" standalone="no"?>
<!DOCTYPE svg PUBLIC "-//W3C//DTD SVG 20010904//EN"
 "http://www.w3.org/TR/2001/REC-SVG-20010904/DTD/svg10.dtd">
<svg version="1.0" xmlns="http://www.w3.org/2000/svg"
 width="1008.000000pt" height="1008.000000pt" viewBox="0 0 1008.000000 1008.000000"
 preserveAspectRatio="xMidYMid meet">
<metadata>
Created by potrace 1.11, written by Peter Selinger 2001-2013
</metadata>
<g transform="translate(0.000000,1008.000000) scale(0.100000,-0.100000)"
fill="#000000" stroke="none">
<path d="M4940 8504 c-294 -52 -556 -241 -674 -486 -16 -31 -28 -61 -28 -65 0
-4 -3 -12 -8 -18 -11 -15 -48 -181 -55 -250 -3 -33 -6 -313 -7 -622 -1 -497
-3 -572 -19 -644 -29 -135 -93 -240 -240 -397 -201 -214 -344 -490 -385 -742
-2 -14 -7 -41 -10 -60 -10 -57 -12 -290 -3 -365 15 -134 20 -161 40 -245 94
-403 319 -716 689 -960 405 -267 841 -332 1297 -194 46 13 85 25 88 25 15 0
241 106 300 141 147 87 315 231 422 363 61 76 145 210 191 306 43 88 105 266
116 329 10 60 17 93 21 99 8 13 19 174 19 271 0 189 -16 307 -63 466 -56 193
-114 304 -213 404 -84 86 -226 175 -246 156 -4 -4 -8 -146 -8 -314 -2 -332 -6
-392 -29 -502 -3 -14 -7 -34 -9 -45 -15 -74 -76 -199 -129 -262 -126 -153
-308 -232 -552 -239 -152 -5 -211 7 -324 63 -86 43 -189 140 -238 223 -38 64
-79 176 -88 240 -3 25 -9 59 -12 75 -9 46 -10 2302 -1 2370 11 84 58 174 119
229 71 64 121 78 282 78 337 2 616 -53 962 -189 393 -155 716 -366 1010 -658
398 -396 654 -841 788 -1370 31 -122 40 -165 53 -235 39 -220 57 -536 40 -710
-9 -96 -18 -172 -22 -195 -2 -11 -9 -49 -15 -85 -5 -36 -17 -92 -26 -125 -8
-33 -17 -71 -19 -84 -20 -105 -126 -378 -223 -571 -164 -326 -347 -585 -577
-815 -270 -270 -557 -462 -907 -606 -177 -72 -416 -146 -567 -175 -14 -2 -36
-7 -50 -9 -51 -10 -75 -15 -110 -20 -20 -3 -45 -7 -55 -9 -11 -2 -54 -7 -95
-11 -41 -4 -88 -9 -105 -11 -43 -4 -374 -4 -410 0 -16 3 -61 7 -100 10 -62 6
-232 36 -365 65 -73 16 -284 82 -297 93 -7 6 -13 8 -13 5 0 -10 -119 40 -288
120 -245 116 -513 302 -727 505 -65 61 -237 250 -295 324 -224 285 -403 633
-509 990 -12 40 -23 80 -26 90 -2 11 -11 49 -19 86 -21 87 -43 208 -51 278 -4
30 -8 58 -10 61 -4 5 -18 269 -18 319 0 46 13 265 17 290 2 14 7 51 11 84 8
67 12 92 26 162 5 28 12 64 15 80 46 258 190 620 358 902 68 114 86 165 86
240 -1 243 -300 357 -477 182 -71 -70 -226 -334 -319 -545 -118 -268 -217
-626 -249 -900 -3 -27 -8 -63 -10 -80 -29 -233 -27 -728 5 -915 5 -30 12 -73
15 -95 4 -22 9 -53 11 -70 20 -124 113 -433 191 -630 341 -867 996 -1542 1888
-1945 203 -92 520 -188 735 -224 19 -3 46 -8 60 -11 14 -3 48 -8 75 -10 28 -3
59 -7 70 -10 131 -26 751 -26 855 0 8 2 42 6 75 10 87 9 341 61 448 91 384
108 746 275 1056 488 40 28 83 58 95 66 28 19 212 170 256 209 437 395 786
917 978 1461 30 87 88 285 96 330 2 14 9 43 14 65 6 22 13 56 16 75 3 19 8 46
10 60 26 149 32 201 43 355 13 187 6 563 -12 679 -2 12 -6 46 -9 76 -7 59 -11
83 -27 170 -6 30 -12 66 -15 80 -40 213 -144 508 -274 775 -185 380 -372 644
-660 936 -184 186 -239 234 -420 371 -217 163 -473 315 -695 413 -22 9 -49 21
-60 26 -186 82 -504 169 -745 205 -19 3 -60 9 -90 14 -64 10 -123 19 -165 25
-16 3 -55 9 -85 16 -84 16 -304 19 -390 3z"/>
</g>
</svg>
